<svg width="1060" height="241" viewBox="0 0 1060 241" fill="none" xmlns="http://www.w3.org/2000/svg">
<path d="M0.928724 236L-0.0384221 235.746L-0.368103 237H0.928724V236ZM61.5335 5.43851V4.43851H60.7623L60.5663 5.18429L61.5335 5.43851ZM137.289 5.43851L138.257 5.18429L138.06 4.43851H137.289V5.43851ZM197.894 236V237H199.191L198.861 235.746L197.894 236ZM153.099 236L152.128 236.24L152.316 237H153.099V236ZM140.583 185.276L141.554 185.037L141.366 184.276H140.583V185.276ZM58.2397 185.276V184.276H57.4565L57.2688 185.037L58.2397 185.276ZM45.7235 236V237H46.5068L46.6944 236.24L45.7235 236ZM68.4503 145.093L67.48 144.851L67.1704 146.093H68.4503V145.093ZM130.373 145.093V146.093H131.652L131.343 144.851L130.373 145.093ZM102.376 32.7765L103.346 32.5346L103.157 31.7765H102.376V32.7765ZM96.4471 32.7765V31.7765H95.6657L95.4767 32.5346L96.4471 32.7765ZM1.89587 236.254L62.5006 5.69273L60.5663 5.18429L-0.0384221 235.746L1.89587 236.254ZM61.5335 6.43851H137.289V4.43851H61.5335V6.43851ZM136.322 5.69273L196.927 236.254L198.861 235.746L138.257 5.18429L136.322 5.69273ZM197.894 235H153.099V237H197.894V235ZM154.07 235.76L141.554 185.037L139.612 185.516L152.128 236.24L154.07 235.76ZM140.583 184.276H58.2397V186.276H140.583V184.276ZM57.2688 185.037L44.7527 235.76L46.6944 236.24L59.2106 185.516L57.2688 185.037ZM45.7235 235H0.928724V237H45.7235V235ZM68.4503 146.093H130.373V144.093H68.4503V146.093ZM131.343 144.851L103.346 32.5346L101.405 33.0184L129.402 145.335L131.343 144.851ZM102.376 31.7765H96.4471V33.7765H102.376V31.7765ZM95.4767 32.5346L67.48 144.851L69.4206 145.335L97.4174 33.0184L95.4767 32.5346ZM305.262 236H304.262V237H305.262V236ZM305.262 5.43851V4.43851H304.262V5.43851H305.262ZM348.739 5.43851H349.739V4.43851H348.739V5.43851ZM348.739 100.627H347.739V101.627H348.739V100.627ZM434.377 100.627V101.627H435.377V100.627H434.377ZM434.377 5.43851V4.43851H433.377V5.43851H434.377ZM477.854 5.43851H478.854V4.43851H477.854V5.43851ZM477.854 236V237H478.854V236H477.854ZM434.377 236H433.377V237H434.377V236ZM434.377 140.152H435.377V139.152H434.377V140.152ZM348.739 140.152V139.152H347.739V140.152H348.739ZM348.739 236V237H349.739V236H348.739ZM306.262 236V5.43851H304.262V236H306.262ZM305.262 6.43851H348.739V4.43851H305.262V6.43851ZM347.739 5.43851V100.627H349.739V5.43851H347.739ZM348.739 101.627H434.377V99.6275H348.739V101.627ZM435.377 100.627V5.43851H433.377V100.627H435.377ZM434.377 6.43851H477.854V4.43851H434.377V6.43851ZM476.854 5.43851V236H478.854V5.43851H476.854ZM477.854 235H434.377V237H477.854V235ZM435.377 236V140.152H433.377V236H435.377ZM434.377 139.152H348.739V141.152H434.377V139.152ZM347.739 140.152V236H349.739V140.152H347.739ZM348.739 235H305.262V237H348.739V235ZM541.835 216.896L541.151 217.626L541.156 217.631L541.835 216.896ZM541.835 24.8716L542.513 25.6064L542.518 25.6017L541.835 24.8716ZM680.172 24.8716L679.488 25.6017L679.493 25.6064L680.172 24.8716ZM680.172 216.896L680.85 217.631L680.855 217.626L680.172 216.896ZM648.881 187.582L648.157 186.892L648.881 187.582ZM648.881 53.8564L648.157 54.5465L648.881 53.8564ZM573.125 53.8564L572.41 53.1576L572.401 53.1664L573.125 53.8564ZM573.125 187.582L572.401 188.272L572.41 188.281L573.125 187.582ZM611.003 239.611C582.206 239.611 559.413 231.762 542.513 216.162L541.156 217.631C558.511 233.651 581.831 241.611 611.003 241.611V239.611ZM542.518 216.166C525.643 200.373 517.144 177.831 517.144 148.387H515.144C515.144 178.229 523.771 201.361 541.151 217.626L542.518 216.166ZM517.144 148.387V93.0519H515.144V148.387H517.144ZM517.144 93.0519C517.144 63.6067 525.643 41.1784 542.513 25.6064L541.156 24.1367C523.771 40.1845 515.144 63.2099 515.144 93.0519H517.144ZM542.518 25.6017C559.419 9.78415 582.209 1.82728 611.003 1.82728V-0.172722C581.827 -0.172722 558.505 7.89993 541.151 24.1414L542.518 25.6017ZM611.003 1.82728C639.797 1.82728 662.587 9.78415 679.488 25.6017L680.855 24.1414C663.501 7.89993 640.179 -0.172722 611.003 -0.172722V1.82728ZM679.493 25.6064C696.363 41.1784 704.863 63.6067 704.863 93.0519H706.863C706.863 63.2099 698.235 40.1845 680.85 24.1367L679.493 25.6064ZM704.863 93.0519V148.387H706.863V93.0519H704.863ZM704.863 148.387C704.863 177.831 696.363 200.373 679.488 216.166L680.855 217.626C698.235 201.361 706.863 178.229 706.863 148.387H704.863ZM679.493 216.162C662.593 231.762 639.801 239.611 611.003 239.611V241.611C640.175 241.611 663.496 233.651 680.85 217.631L679.493 216.162ZM611.003 202.745C627.454 202.745 640.369 197.959 649.605 188.272L648.157 186.892C639.387 196.09 627.05 200.745 611.003 200.745V202.745ZM649.605 188.272C658.821 178.606 663.385 165.713 663.385 149.704H661.385C661.385 165.315 656.947 177.674 648.157 186.892L649.605 188.272ZM663.385 149.704V91.7344H661.385V149.704H663.385ZM663.385 91.7344C663.385 75.7251 658.821 62.8323 649.605 53.1664L648.157 54.5465C656.947 63.7646 661.385 76.1238 661.385 91.7344H663.385ZM649.605 53.1664C640.369 43.48 627.454 38.6934 611.003 38.6934V40.6934C627.05 40.6934 639.387 45.3488 648.157 54.5465L649.605 53.1664ZM611.003 38.6934C594.766 38.6934 581.86 43.4829 572.41 53.1577L573.841 54.5552C582.836 45.3459 595.181 40.6934 611.003 40.6934V38.6934ZM572.401 53.1664C563.185 62.8323 558.621 75.7251 558.621 91.7344H560.621C560.621 76.1238 565.06 63.7646 573.849 54.5465L572.401 53.1664ZM558.621 91.7344V149.704H560.621V91.7344H558.621ZM558.621 149.704C558.621 165.713 563.185 178.606 572.401 188.272L573.849 186.892C565.06 177.674 560.621 165.315 560.621 149.704H558.621ZM572.41 188.281C581.86 197.956 594.766 202.745 611.003 202.745V200.745C595.181 200.745 582.836 196.093 573.841 186.883L572.41 188.281ZM743.998 236H742.998V237H743.998V236ZM743.998 5.43851V4.43851H742.998V5.43851H743.998ZM824.695 5.43851L825.675 5.24394L825.516 4.43851H824.695V5.43851ZM864.549 206.356L863.568 206.551L863.728 207.356H864.549V206.356ZM870.477 206.356V207.356H871.299L871.458 206.551L870.477 206.356ZM910.332 5.43851V4.43851H909.51L909.351 5.24394L910.332 5.43851ZM991.028 5.43851H992.028V4.43851H991.028V5.43851ZM991.028 236V237H992.028V236H991.028ZM948.868 236H947.868V237H948.868V236ZM948.868 37.3877H949.868V36.3877H948.868V37.3877ZM942.94 37.3877V36.3877H942.119L941.959 37.1926L942.94 37.3877ZM903.415 236V237H904.235L904.396 236.195L903.415 236ZM831.611 236L830.631 236.195L830.791 237H831.611V236ZM792.087 37.3877L793.067 37.1926L792.907 36.3877H792.087V37.3877ZM786.158 37.3877V36.3877H785.158V37.3877H786.158ZM786.158 236V237H787.158V236H786.158ZM744.998 236V5.43851H742.998V236H744.998ZM743.998 6.43851H824.695V4.43851H743.998V6.43851ZM823.714 5.63308L863.568 206.551L865.53 206.162L825.675 5.24394L823.714 5.63308ZM864.549 207.356H870.477V205.356H864.549V207.356ZM871.458 206.551L911.312 5.63308L909.351 5.24394L869.497 206.162L871.458 206.551ZM910.332 6.43851H991.028V4.43851H910.332V6.43851ZM990.028 5.43851V236H992.028V5.43851H990.028ZM991.028 235H948.868V237H991.028V235ZM949.868 236V37.3877H947.868V236H949.868ZM948.868 36.3877H942.94V38.3877H948.868V36.3877ZM941.959 37.1926L902.434 235.805L904.396 236.195L943.92 37.5829L941.959 37.1926ZM903.415 235H831.611V237H903.415V235ZM832.592 235.805L793.067 37.1926L791.106 37.5829L830.631 236.195L832.592 235.805ZM792.087 36.3877H786.158V38.3877H792.087V36.3877ZM785.158 37.3877V236H787.158V37.3877H785.158ZM786.158 235H743.998V237H786.158V235ZM1034.45 236H1033.45V237H1034.45V236ZM1034.45 5.43851V4.43851H1033.45V5.43851H1034.45ZM1182.67 5.43851H1183.67V4.43851H1182.67V5.43851ZM1182.67 44.9633V45.9633H1183.67V44.9633H1182.67ZM1077.93 44.9633V43.9633H1076.93V44.9633H1077.93ZM1077.93 99.9687H1076.93V100.969H1077.93V99.9687ZM1173.45 99.9687H1174.45V98.9687H1173.45V99.9687ZM1173.45 139.494V140.494H1174.45V139.494H1173.45ZM1077.93 139.494V138.494H1076.93V139.494H1077.93ZM1077.93 196.475H1076.93V197.475H1077.93V196.475ZM1184.65 196.475H1185.65V195.475H1184.65V196.475ZM1184.65 236V237H1185.65V236H1184.65ZM1035.45 236V5.43851H1033.45V236H1035.45ZM1034.45 6.43851H1182.67V4.43851H1034.45V6.43851ZM1181.67 5.43851V44.9633H1183.67V5.43851H1181.67ZM1182.67 43.9633H1077.93V45.9633H1182.67V43.9633ZM1076.93 44.9633V99.9687H1078.93V44.9633H1076.93ZM1077.93 100.969H1173.45V98.9687H1077.93V100.969ZM1172.45 99.9687V139.494H1174.45V99.9687H1172.45ZM1173.45 138.494H1077.93V140.494H1173.45V138.494ZM1076.93 139.494V196.475H1078.93V139.494H1076.93ZM1077.93 197.475H1184.65V195.475H1077.93V197.475ZM1183.65 196.475V236H1185.65V196.475H1183.65ZM1184.65 235H1034.45V237H1184.65V235Z" fill="#363636"/>
</svg>
