<svg width="866" height="241" viewBox="0 0 866 241" fill="none" xmlns="http://www.w3.org/2000/svg">
<path d="M0.151184 236H-0.848816V237H0.151184V236ZM0.151184 197.793V196.793H-0.848816V197.793H0.151184ZM30.4536 197.793V198.793H31.4536V197.793H30.4536ZM30.4536 43.6458H31.4536V42.6458H30.4536V43.6458ZM0.151184 43.6458H-0.848816V44.6458H0.151184V43.6458ZM0.151184 5.43851V4.43851H-0.848816V5.43851H0.151184ZM155.286 12.6847L154.862 13.5904L154.874 13.5958L154.885 13.6009L155.286 12.6847ZM179.66 32.7765L178.821 33.3215L178.829 33.3337L178.838 33.3457L179.66 32.7765ZM182.624 93.0519L183.482 93.5664L183.485 93.5602L183.489 93.554L182.624 93.0519ZM168.461 108.532L169.016 109.365L169.023 109.359L168.461 108.532ZM153.31 116.108L153.007 115.155L152.31 115.377V116.108H153.31ZM153.31 122.037H152.31V122.801L153.047 123.002L153.31 122.037ZM169.12 129.612L168.573 130.449L168.584 130.457L168.596 130.464L169.12 129.612ZM183.612 145.093L182.747 145.595L182.753 145.605L182.76 145.615L183.612 145.093ZM180.977 208.003L181.812 208.553L181.818 208.544L180.977 208.003ZM156.274 228.754L155.858 227.845L155.85 227.848L156.274 228.754ZM73.9309 196.475H72.9309V197.475H73.9309V196.475ZM137.5 189.558L136.886 188.769L136.879 188.775L136.872 188.78L137.5 189.558ZM137.829 146.74L138.458 145.962L137.829 146.74ZM73.9309 139.823V138.823H72.9309V139.823H73.9309ZM73.9309 100.298H72.9309V101.298H73.9309V100.298ZM136.182 93.3813L135.569 92.5919L135.561 92.5975L135.554 92.6033L136.182 93.3813ZM136.512 51.8802L135.883 52.6581L135.893 52.6656L135.902 52.6728L136.512 51.8802ZM73.9309 44.9633V43.9633H72.9309V44.9633H73.9309ZM1.15118 236V197.793H-0.848816V236H1.15118ZM0.151184 198.793H30.4536V196.793H0.151184V198.793ZM31.4536 197.793V43.6458H29.4536V197.793H31.4536ZM30.4536 42.6458H0.151184V44.6458H30.4536V42.6458ZM1.15118 43.6458V5.43851H-0.848816V43.6458H1.15118ZM0.151184 6.43851H118.726V4.43851H0.151184V6.43851ZM118.726 6.43851C132.666 6.43851 144.702 8.83447 154.862 13.5904L155.71 11.779C145.23 6.87336 132.892 4.43851 118.726 4.43851V6.43851ZM154.885 13.6009C165.265 18.1418 173.229 24.718 178.821 33.3215L180.498 32.2315C174.672 23.2684 166.388 16.4501 155.687 11.7686L154.885 13.6009ZM178.838 33.3457C184.633 41.7167 187.553 51.8306 187.553 63.7376H189.553C189.553 51.4906 186.544 40.9638 180.482 32.2073L178.838 33.3457ZM187.553 63.7376V67.0314H189.553V63.7376H187.553ZM187.553 67.0314C187.553 77.4527 185.598 85.9384 181.759 92.5497L183.489 93.554C187.555 86.5512 189.553 77.6899 189.553 67.0314H187.553ZM181.767 92.5374C177.877 99.02 173.251 104.066 167.899 107.706L169.023 109.359C174.65 105.533 179.466 100.259 183.482 93.5664L181.767 92.5374ZM167.906 107.7C162.696 111.174 157.73 113.652 153.007 115.155L153.613 117.061C158.552 115.49 163.686 112.917 169.016 109.364L167.906 107.7ZM152.31 116.108V122.037H154.31V116.108H152.31ZM153.047 123.002C157.748 124.284 162.921 126.754 168.573 130.449L169.667 128.775C163.9 125.005 158.534 122.425 153.573 121.072L153.047 123.002ZM168.596 130.464C174.142 133.877 178.863 138.906 182.747 145.595L184.477 144.591C180.456 137.666 175.516 132.375 169.644 128.761L168.596 130.464ZM182.76 145.615C186.806 152.217 188.87 160.911 188.87 171.772H190.87C190.87 160.675 188.763 151.583 184.465 144.57L182.76 145.615ZM188.87 171.772V175.066H190.87V171.772H188.87ZM188.87 175.066C188.87 187.642 185.945 198.426 180.136 207.462L181.818 208.544C187.867 199.136 190.87 187.962 190.87 175.066H188.87ZM180.142 207.453C174.324 216.288 166.241 223.086 155.858 227.845L156.691 229.663C167.388 224.76 175.773 217.725 181.812 208.553L180.142 207.453ZM155.85 227.848C145.688 232.605 133.761 235 120.043 235V237C133.993 237 146.22 234.564 156.698 229.659L155.85 227.848ZM120.043 235H0.151184V237H120.043V235ZM73.9309 197.475H114.773V195.475H73.9309V197.475ZM114.773 197.475C124.377 197.475 132.196 195.128 138.128 190.336L136.872 188.78C131.386 193.211 124.053 195.475 114.773 195.475V197.475ZM138.114 190.348C144.322 185.519 147.393 178.619 147.393 169.796H145.393C145.393 178.1 142.535 184.375 136.886 188.769L138.114 190.348ZM147.393 169.796V166.502H145.393V169.796H147.393ZM147.393 166.502C147.393 157.693 144.443 150.796 138.458 145.962L137.201 147.518C142.634 151.906 145.393 158.184 145.393 166.502H147.393ZM138.458 145.962C132.521 141.167 124.591 138.823 114.773 138.823V140.823C124.279 140.823 131.719 143.09 137.201 147.518L138.458 145.962ZM114.773 138.823H73.9309V140.823H114.773V138.823ZM72.9309 139.823V196.475H74.9309V139.823H72.9309ZM73.9309 101.298H114.114V99.2981H73.9309V101.298ZM114.114 101.298C123.293 101.298 130.886 98.9444 136.811 94.1592L135.554 92.6033C130.06 97.0405 122.942 99.2981 114.114 99.2981V101.298ZM136.796 94.1706C142.991 89.3528 146.076 82.6817 146.076 74.2776H144.076C144.076 82.1226 141.232 88.1873 135.569 92.5919L136.796 94.1706ZM146.076 74.2776V70.9838H144.076V74.2776H146.076ZM146.076 70.9838C146.076 62.3849 143.118 55.7 137.122 51.0876L135.902 52.6728C141.324 56.8436 144.076 62.8945 144.076 70.9838H146.076ZM137.14 51.1022C131.211 46.3137 123.506 43.9633 114.114 43.9633V45.9633C123.168 45.9633 130.394 48.2242 135.883 52.6581L137.14 51.1022ZM114.114 43.9633H73.9309V45.9633H114.114V43.9633ZM72.9309 44.9633V100.298H74.9309V44.9633H72.9309ZM225.463 236H224.463V237H225.463V236ZM225.463 5.43851V4.43851H224.463V5.43851H225.463ZM268.941 5.43851H269.941V4.43851H268.941V5.43851ZM268.941 196.475H267.941V197.475H268.941V196.475ZM374.34 196.475H375.34V195.475H374.34V196.475ZM374.34 236V237H375.34V236H374.34ZM226.463 236V5.43851H224.463V236H226.463ZM225.463 6.43851H268.941V4.43851H225.463V6.43851ZM267.941 5.43851V196.475H269.941V5.43851H267.941ZM268.941 197.475H374.34V195.475H268.941V197.475ZM373.34 196.475V236H375.34V196.475H373.34ZM374.34 235H225.463V237H374.34V235ZM416.683 216.896L415.999 217.626L416.004 217.631L416.683 216.896ZM416.683 24.8716L417.361 25.6064L417.366 25.6017L416.683 24.8716ZM555.02 24.8716L554.336 25.6017L554.341 25.6064L555.02 24.8716ZM555.02 216.896L555.698 217.631L555.703 217.626L555.02 216.896ZM523.729 187.582L523.005 186.892L523.729 187.582ZM523.729 53.8564L523.005 54.5465L523.729 53.8564ZM447.973 53.8564L447.258 53.1576L447.249 53.1664L447.973 53.8564ZM447.973 187.582L447.249 188.272L447.258 188.281L447.973 187.582ZM485.851 239.611C457.054 239.611 434.261 231.762 417.361 216.162L416.004 217.631C433.359 233.651 456.679 241.611 485.851 241.611V239.611ZM417.366 216.166C400.491 200.373 391.991 177.831 391.991 148.387H389.991C389.991 178.229 398.619 201.361 415.999 217.626L417.366 216.166ZM391.991 148.387V93.0519H389.991V148.387H391.991ZM391.991 93.0519C391.991 63.6067 400.491 41.1784 417.361 25.6064L416.004 24.1367C398.619 40.1845 389.991 63.2099 389.991 93.0519H391.991ZM417.366 25.6017C434.267 9.78415 457.057 1.82728 485.851 1.82728V-0.172722C456.675 -0.172722 433.353 7.89993 415.999 24.1414L417.366 25.6017ZM485.851 1.82728C514.645 1.82728 537.435 9.78415 554.336 25.6017L555.703 24.1414C538.349 7.89993 515.027 -0.172722 485.851 -0.172722V1.82728ZM554.341 25.6064C571.211 41.1784 579.711 63.6067 579.711 93.0519H581.711C581.711 63.2099 573.083 40.1845 555.698 24.1367L554.341 25.6064ZM579.711 93.0519V148.387H581.711V93.0519H579.711ZM579.711 148.387C579.711 177.831 571.211 200.373 554.336 216.166L555.703 217.626C573.083 201.361 581.711 178.229 581.711 148.387H579.711ZM554.341 216.162C537.441 231.762 514.649 239.611 485.851 239.611V241.611C515.023 241.611 538.343 233.651 555.698 217.631L554.341 216.162ZM485.851 202.745C502.302 202.745 515.217 197.959 524.453 188.272L523.005 186.892C514.235 196.09 501.898 200.745 485.851 200.745V202.745ZM524.453 188.272C533.669 178.606 538.233 165.713 538.233 149.704H536.233C536.233 165.315 531.795 177.674 523.005 186.892L524.453 188.272ZM538.233 149.704V91.7344H536.233V149.704H538.233ZM538.233 91.7344C538.233 75.7251 533.669 62.8323 524.453 53.1664L523.005 54.5465C531.795 63.7646 536.233 76.1238 536.233 91.7344H538.233ZM524.453 53.1664C515.217 43.48 502.302 38.6934 485.851 38.6934V40.6934C501.898 40.6934 514.235 45.3488 523.005 54.5465L524.453 53.1664ZM485.851 38.6934C469.614 38.6934 456.708 43.4829 447.258 53.1577L448.688 54.5552C457.684 45.3459 470.029 40.6934 485.851 40.6934V38.6934ZM447.249 53.1664C438.033 62.8323 433.469 75.7251 433.469 91.7344H435.469C435.469 76.1238 439.907 63.7646 448.697 54.5465L447.249 53.1664ZM433.469 91.7344V149.704H435.469V91.7344H433.469ZM433.469 149.704C433.469 165.713 438.033 178.606 447.249 188.272L448.697 186.892C439.907 177.674 435.469 165.315 435.469 149.704H433.469ZM447.258 188.281C456.708 197.956 469.614 202.745 485.851 202.745V200.745C470.029 200.745 457.684 196.093 448.688 186.883L447.258 188.281ZM638.608 216.896L637.916 217.618L637.921 217.622L638.608 216.896ZM638.608 24.8716L639.296 25.5975L639.301 25.5928L638.608 24.8716ZM772.005 24.2128L771.292 24.9149L771.297 24.9199L771.302 24.9249L772.005 24.2128ZM795.39 89.7581V90.7581H796.39V89.7581H795.39ZM752.572 89.7581H751.572V90.7581H752.572V89.7581ZM741.043 52.8683L740.282 53.5159L740.286 53.5214L740.291 53.5268L741.043 52.8683ZM670.228 187.582L669.488 188.255L669.496 188.263L670.228 187.582ZM741.043 188.57L740.283 187.921L740.282 187.923L741.043 188.57ZM752.572 149.045V148.045H751.572V149.045H752.572ZM795.39 149.045H796.39V148.045H795.39V149.045ZM772.005 217.555L771.297 216.848L772.005 217.555ZM706.459 239.611C678.104 239.611 655.756 231.764 639.296 216.17L637.921 217.622C654.837 233.648 677.723 241.611 706.459 241.611V239.611ZM639.301 216.175C622.861 200.384 614.576 177.839 614.576 148.387H612.576C612.576 178.222 620.98 201.35 637.916 217.618L639.301 216.175ZM614.576 148.387V93.0519H612.576V148.387H614.576ZM614.576 93.0519C614.576 63.599 622.861 41.1678 639.296 25.5975L637.921 24.1456C620.979 40.1952 612.576 63.2175 612.576 93.0519H614.576ZM639.301 25.5928C655.762 9.78181 678.108 1.82728 706.459 1.82728V-0.172722C677.719 -0.172722 654.831 7.90226 637.916 24.1504L639.301 25.5928ZM706.459 1.82728C734.6 1.82728 756.16 9.5667 771.292 24.9149L772.717 23.5107C757.107 7.67822 734.971 -0.172722 706.459 -0.172722V1.82728ZM771.302 24.9249C786.66 40.0657 794.39 60.9745 794.39 87.7819H796.39C796.39 60.5721 788.53 39.1014 772.707 23.5007L771.302 24.9249ZM794.39 87.7819V89.7581H796.39V87.7819H794.39ZM795.39 88.7581H752.572V90.7581H795.39V88.7581ZM753.572 89.7581V86.4644H751.572V89.7581H753.572ZM753.572 86.4644C753.572 72.6508 749.667 61.2051 741.796 52.2098L740.291 53.5268C747.791 62.0981 751.572 73.0498 751.572 86.4644H753.572ZM741.805 52.2206C734.089 43.1423 722.234 38.6934 706.459 38.6934V40.6934C721.865 40.6934 733.067 45.0278 740.282 53.5159L741.805 52.2206ZM706.459 38.6934C690.869 38.6934 678.505 43.4911 669.496 53.1753L670.96 54.5375C679.518 45.3377 691.308 40.6934 706.459 40.6934V38.6934ZM669.496 53.1753C660.499 62.8471 656.053 75.9598 656.053 92.3931H658.053C658.053 76.3283 662.391 63.7498 670.96 54.5375L669.496 53.1753ZM656.053 92.3931V149.045H658.053V92.3931H656.053ZM656.053 149.045C656.053 165.264 660.502 178.369 669.488 188.255L670.968 186.909C662.388 177.471 658.053 164.885 658.053 149.045H656.053ZM669.496 188.263C678.505 197.947 690.869 202.745 706.459 202.745V200.745C691.308 200.745 679.518 196.101 670.96 186.901L669.496 188.263ZM706.459 202.745C722.234 202.745 734.089 198.296 741.805 189.218L740.282 187.923C733.067 196.411 721.865 200.745 706.459 200.745V202.745ZM741.804 189.219C749.664 180.012 753.572 168.573 753.572 154.974H751.572C751.572 168.164 747.793 179.123 740.283 187.921L741.804 189.219ZM753.572 154.974V149.045H751.572V154.974H753.572ZM752.572 150.045H795.39V148.045H752.572V150.045ZM794.39 149.045V153.657H796.39V149.045H794.39ZM794.39 153.657C794.39 180.463 786.66 201.486 771.297 216.848L772.712 218.262C788.53 202.444 796.39 180.867 796.39 153.657H794.39ZM771.297 216.848C756.166 231.979 734.604 239.611 706.459 239.611V241.611C734.967 241.611 757.102 233.872 772.712 218.262L771.297 216.848ZM830.816 236H829.816V237H830.816V236ZM830.816 5.43851V4.43851H829.816V5.43851H830.816ZM874.293 5.43851H875.293V4.43851H874.293V5.43851ZM874.293 97.0044H873.293V98.0044H874.293V97.0044ZM880.222 97.0044V98.0044H880.696L880.996 97.6368L880.222 97.0044ZM954.99 5.43851V4.43851H954.515L954.215 4.80603L954.99 5.43851ZM1010.65 5.43851L1011.42 6.08455L1012.81 4.43851H1010.65V5.43851ZM914.477 119.072L913.713 118.426L913.165 119.074L913.715 119.72L914.477 119.072ZM1013.95 236V237H1016.11L1014.71 235.352L1013.95 236ZM956.636 236L955.862 236.633L956.162 237H956.636V236ZM880.222 142.458L880.996 141.825L880.696 141.458H880.222V142.458ZM874.293 142.458V141.458H873.293V142.458H874.293ZM874.293 236V237H875.293V236H874.293ZM831.816 236V5.43851H829.816V236H831.816ZM830.816 6.43851H874.293V4.43851H830.816V6.43851ZM873.293 5.43851V97.0044H875.293V5.43851H873.293ZM874.293 98.0044H880.222V96.0044H874.293V98.0044ZM880.996 97.6368L955.764 6.07099L954.215 4.80603L879.447 96.3719L880.996 97.6368ZM954.99 6.43851H1010.65V4.43851H954.99V6.43851ZM1009.89 4.79247L913.713 118.426L915.24 119.718L1011.42 6.08455L1009.89 4.79247ZM913.715 119.72L1013.19 236.648L1014.71 235.352L915.238 118.424L913.715 119.72ZM1013.95 235H956.636V237H1013.95V235ZM957.411 235.367L880.996 141.825L879.447 143.091L955.862 236.633L957.411 235.367ZM880.222 141.458H874.293V143.458H880.222V141.458ZM873.293 142.458V236H875.293V142.458H873.293ZM874.293 235H830.816V237H874.293V235Z" fill="#363636"/>
</svg>
