<svg width="1440" height="241" viewBox="0 0 1440 241" fill="none" xmlns="http://www.w3.org/2000/svg">
<path d="M-287.261 236H-288.261V237H-287.261V236ZM-287.261 5.43851V4.43851H-288.261V5.43851H-287.261ZM-154.194 14.3316L-154.67 15.2115L-154.659 15.2171L-154.649 15.2225L-154.194 14.3316ZM-128.174 38.7052L-129.038 39.2091L-129.034 39.2158L-129.03 39.2224L-128.174 38.7052ZM-128.503 118.414L-129.356 117.891L-129.359 117.897L-128.503 118.414ZM-154.853 143.117L-154.392 144.004L-154.385 144L-154.853 143.117ZM-243.784 151.68V150.68H-244.784V151.68H-243.784ZM-243.784 236V237H-242.784V236H-243.784ZM-243.784 112.156H-244.784V113.156H-243.784V112.156ZM-171.651 103.592L-170.984 104.336L-171.651 103.592ZM-171.651 53.5271L-170.984 52.7825L-171.651 53.5271ZM-243.784 44.9633V43.9633H-244.784V44.9633H-243.784ZM-286.261 236V5.43851H-288.261V236H-286.261ZM-287.261 6.43851H-192.402V4.43851H-287.261V6.43851ZM-192.402 6.43851C-178.048 6.43851 -165.481 9.37347 -154.67 15.2115L-153.719 13.4517C-164.866 7.43227 -177.77 4.43851 -192.402 4.43851V6.43851ZM-154.649 15.2225C-143.615 20.8473 -135.086 28.84 -129.038 39.2091L-127.31 38.2014C-133.558 27.4906 -142.376 19.2341 -153.74 13.4407L-154.649 15.2225ZM-129.03 39.2224C-122.772 49.5806 -119.622 61.9111 -119.622 76.2538H-117.622C-117.622 61.6117 -120.84 48.9098 -127.318 38.1881L-129.03 39.2224ZM-119.622 76.2538V80.8651H-117.622V76.2538H-119.622ZM-119.622 80.8651C-119.622 94.9784 -122.877 107.309 -129.356 117.891L-127.65 118.936C-120.955 107.999 -117.622 95.2974 -117.622 80.8651H-119.622ZM-129.359 117.897C-135.631 128.277 -144.278 136.386 -155.321 142.233L-154.385 144C-143.031 137.99 -134.112 129.63 -127.647 118.931L-129.359 117.897ZM-155.315 142.229C-166.133 147.855 -178.487 150.68 -192.402 150.68V152.68C-178.21 152.68 -165.532 149.797 -154.392 144.004L-155.315 142.229ZM-192.402 150.68H-243.784V152.68H-192.402V150.68ZM-244.784 151.68V236H-242.784V151.68H-244.784ZM-243.784 235H-287.261V237H-243.784V235ZM-243.784 113.156H-196.684V111.156H-243.784V113.156ZM-196.684 113.156C-186.17 113.156 -177.571 110.243 -170.984 104.336L-172.319 102.847C-178.467 108.359 -186.556 111.156 -196.684 111.156V113.156ZM-170.984 104.336C-164.371 98.4073 -161.099 90.323 -161.099 80.2063H-163.099C-163.099 89.852 -166.196 97.358 -172.319 102.847L-170.984 104.336ZM-161.099 80.2063V76.9126H-163.099V80.2063H-161.099ZM-161.099 76.9126C-161.099 66.7959 -164.371 58.7115 -170.984 52.7825L-172.319 54.2716C-166.196 59.7609 -163.099 67.2669 -163.099 76.9126H-161.099ZM-170.984 52.7825C-177.571 46.8763 -186.17 43.9633 -196.684 43.9633V45.9633C-186.556 45.9633 -178.467 48.7595 -172.319 54.2716L-170.984 52.7825ZM-196.684 43.9633H-243.784V45.9633H-196.684V43.9633ZM-244.784 44.9633V112.156H-242.784V44.9633H-244.784ZM-88.4793 236H-89.4793V237H-88.4793V236ZM-88.4793 5.43851V4.43851H-89.4793V5.43851H-88.4793ZM49.5282 13.0141L49.1033 13.9193L49.5282 13.0141ZM74.5606 34.4234L75.4018 33.8826L74.5606 34.4234ZM73.5725 104.58L74.3651 105.19L73.5725 104.58ZM49.1989 123.354L48.8203 122.429L48.1989 122.683V123.354H49.1989ZM49.1989 129.283H48.1989V130.234L49.1489 130.282L49.1989 129.283ZM69.62 138.505L68.8566 139.151L68.8629 139.159L68.8693 139.166L69.62 138.505ZM76.8662 236V237H77.8662V236H76.8662ZM33.3889 236H32.3889V237H33.3889V236ZM29.1071 153.986L28.3262 154.611L28.3385 154.626L28.3514 154.641L29.1071 153.986ZM-45.002 149.045V148.045H-46.002V149.045H-45.002ZM-45.002 236V237H-44.002V236H-45.002ZM-45.002 109.521H-46.002V110.521H-45.002V109.521ZM31.0833 101.286L31.7764 102.007L31.777 102.007L31.0833 101.286ZM31.4127 53.5271L30.7056 54.2342L30.7125 54.2411L30.7196 54.2479L31.4127 53.5271ZM-45.002 44.9633V43.9633H-46.002V44.9633H-45.002ZM-87.4793 236V5.43851H-89.4793V236H-87.4793ZM-88.4793 6.43851H11.6503V4.43851H-88.4793V6.43851ZM11.6503 6.43851C26.0274 6.43851 38.5027 8.94351 49.1033 13.9193L49.9532 12.1089C39.0348 6.9839 26.258 4.43851 11.6503 4.43851V6.43851ZM49.1033 13.9193C59.7075 18.8968 67.901 25.9132 73.7195 34.9641L75.4018 33.8826C69.3629 24.4887 60.8681 17.2322 49.9532 12.1089L49.1033 13.9193ZM73.7195 34.9641C79.5304 44.0034 82.4537 54.679 82.4537 67.0314H84.4537C84.4537 54.3513 81.4483 43.2883 75.4018 33.8826L73.7195 34.9641ZM82.4537 67.0314V70.9838H84.4537V67.0314H82.4537ZM82.4537 70.9838C82.4537 84.6595 79.1992 95.6251 72.7799 103.97L74.3651 105.19C81.1208 96.4074 84.4537 84.9756 84.4537 70.9838H82.4537ZM72.7799 103.97C66.2962 112.399 58.3125 118.546 48.8203 122.429L49.5775 124.28C59.4085 120.258 67.6739 113.888 74.3651 105.19L72.7799 103.97ZM48.1989 123.354V129.283H50.1989V123.354H48.1989ZM49.1489 130.282C57.7088 130.71 64.2362 133.691 68.8566 139.151L70.3834 137.859C65.3423 131.902 58.2556 128.735 49.2488 128.284L49.1489 130.282ZM68.8693 139.166C73.5008 144.429 75.8662 151.529 75.8662 160.573H77.8662C77.8662 151.173 75.4008 143.561 70.3707 137.845L68.8693 139.166ZM75.8662 160.573V236H77.8662V160.573H75.8662ZM76.8662 235H33.3889V237H76.8662V235ZM34.3889 236V166.832H32.3889V236H34.3889ZM34.3889 166.832C34.3889 161.374 32.9062 156.843 29.8628 153.331L28.3514 154.641C31.0171 157.717 32.3889 161.75 32.3889 166.832H34.3889ZM29.8879 153.361C26.9825 149.729 22.1162 148.045 15.6028 148.045V150.045C21.8251 150.045 25.9617 151.655 28.3262 154.611L29.8879 153.361ZM15.6028 148.045H-45.002V150.045H15.6028V148.045ZM-46.002 149.045V236H-44.002V149.045H-46.002ZM-45.002 235H-88.4793V237H-45.002V235ZM-45.002 110.521H7.03906V108.521H-45.002V110.521ZM7.03906 110.521C17.5368 110.521 25.8298 107.725 31.7764 102.007L30.3902 100.565C24.9186 105.827 17.1821 108.521 7.03906 108.521V110.521ZM31.777 102.007C37.926 96.0853 40.9764 88.347 40.9764 78.8888H38.9764C38.9764 87.8755 36.0981 95.0688 30.3897 100.566L31.777 102.007ZM40.9764 78.8888V75.5951H38.9764V78.8888H40.9764ZM40.9764 75.5951C40.9764 66.1492 38.0435 58.5155 32.1058 52.8062L30.7196 54.2479C36.2002 59.5177 38.9764 66.596 38.9764 75.5951H40.9764ZM32.1198 52.8199C26.1709 46.871 17.7599 43.9633 7.03906 43.9633V45.9633C17.3981 45.9633 25.2362 48.7648 30.7056 54.2342L32.1198 52.8199ZM7.03906 43.9633H-45.002V45.9633H7.03906V43.9633ZM-46.002 44.9633V109.521H-44.002V44.9633H-46.002ZM140.052 216.896L139.369 217.626L139.374 217.631L140.052 216.896ZM140.052 24.8716L140.73 25.6064L140.735 25.6017L140.052 24.8716ZM278.389 24.8716L277.705 25.6017L277.711 25.6064L278.389 24.8716ZM278.389 216.896L279.067 217.631L279.072 217.626L278.389 216.896ZM247.098 187.582L246.375 186.892L247.098 187.582ZM247.098 53.8564L246.375 54.5465L247.098 53.8564ZM171.342 53.8564L170.627 53.1576L170.619 53.1664L171.342 53.8564ZM171.342 187.582L170.619 188.272L170.627 188.281L171.342 187.582ZM209.22 239.611C180.423 239.611 157.631 231.762 140.73 216.162L139.374 217.631C156.728 233.651 180.048 241.611 209.22 241.611V239.611ZM140.735 216.166C123.86 200.373 115.361 177.831 115.361 148.387H113.361C113.361 178.229 121.989 201.361 139.369 217.626L140.735 216.166ZM115.361 148.387V93.0519H113.361V148.387H115.361ZM115.361 93.0519C115.361 63.6067 123.86 41.1784 140.73 25.6064L139.374 24.1367C121.989 40.1845 113.361 63.2099 113.361 93.0519H115.361ZM140.735 25.6017C157.636 9.78415 180.426 1.82728 209.22 1.82728V-0.172722C180.044 -0.172722 156.723 7.89993 139.369 24.1414L140.735 25.6017ZM209.22 1.82728C238.014 1.82728 260.805 9.78415 277.706 25.6017L279.072 24.1414C261.718 7.89993 238.396 -0.172722 209.22 -0.172722V1.82728ZM277.711 25.6064C294.58 41.1784 303.08 63.6067 303.08 93.0519H305.08C305.08 63.2099 296.452 40.1845 279.067 24.1367L277.711 25.6064ZM303.08 93.0519V148.387H305.08V93.0519H303.08ZM303.08 148.387C303.08 177.831 294.58 200.373 277.706 216.166L279.072 217.626C296.452 201.361 305.08 178.229 305.08 148.387H303.08ZM277.711 216.162C260.81 231.762 238.018 239.611 209.22 239.611V241.611C238.393 241.611 261.713 233.651 279.067 217.631L277.711 216.162ZM209.22 202.745C225.671 202.745 238.586 197.959 247.822 188.272L246.375 186.892C237.605 196.09 225.268 200.745 209.22 200.745V202.745ZM247.822 188.272C257.038 178.606 261.603 165.713 261.603 149.704H259.603C259.603 165.315 255.164 177.674 246.375 186.892L247.822 188.272ZM261.603 149.704V91.7344H259.603V149.704H261.603ZM261.603 91.7344C261.603 75.7251 257.038 62.8323 247.822 53.1664L246.375 54.5465C255.164 63.7646 259.603 76.1238 259.603 91.7344H261.603ZM247.822 53.1664C238.586 43.48 225.671 38.6934 209.22 38.6934V40.6934C225.268 40.6934 237.605 45.3488 246.375 54.5465L247.822 53.1664ZM209.22 38.6934C192.983 38.6934 180.077 43.4829 170.627 53.1577L172.058 54.5552C181.053 45.3459 193.398 40.6934 209.22 40.6934V38.6934ZM170.619 53.1664C161.402 62.8323 156.838 75.7251 156.838 91.7344H158.838C158.838 76.1238 163.277 63.7646 172.066 54.5465L170.619 53.1664ZM156.838 91.7344V149.704H158.838V91.7344H156.838ZM156.838 149.704C156.838 165.713 161.402 178.606 170.619 188.272L172.066 186.892C163.277 177.674 158.838 165.315 158.838 149.704H156.838ZM170.627 188.281C180.077 197.956 192.983 202.745 209.22 202.745V200.745C193.398 200.745 181.053 196.093 172.058 186.883L170.627 188.281ZM342.215 236H341.215V237H342.215V236ZM342.215 5.43851V4.43851H341.215V5.43851H342.215ZM475.282 14.3316L474.807 15.2115L474.817 15.2171L474.828 15.2225L475.282 14.3316ZM501.303 38.7052L500.439 39.2091L500.443 39.2158L500.447 39.2224L501.303 38.7052ZM500.973 118.414L500.12 117.891L500.117 117.897L500.973 118.414ZM474.623 143.117L475.085 144.004L475.091 144L474.623 143.117ZM385.693 151.68V150.68H384.693V151.68H385.693ZM385.693 236V237H386.693V236H385.693ZM385.693 112.156H384.693V113.156H385.693V112.156ZM457.825 103.592L458.493 104.336L457.825 103.592ZM457.825 53.5271L458.493 52.7825L457.825 53.5271ZM385.693 44.9633V43.9633H384.693V44.9633H385.693ZM343.215 236V5.43851H341.215V236H343.215ZM342.215 6.43851H437.075V4.43851H342.215V6.43851ZM437.075 6.43851C451.428 6.43851 463.996 9.37347 474.807 15.2115L475.757 13.4517C464.61 7.43227 451.706 4.43851 437.075 4.43851V6.43851ZM474.828 15.2225C485.861 20.8473 494.39 28.84 500.439 39.2091L502.166 38.2014C495.918 27.4906 487.1 19.2341 475.736 13.4407L474.828 15.2225ZM500.447 39.2224C506.705 49.5806 509.854 61.9111 509.854 76.2538H511.854C511.854 61.6117 508.636 48.9098 502.159 38.1881L500.447 39.2224ZM509.854 76.2538V80.8651H511.854V76.2538H509.854ZM509.854 80.8651C509.854 94.9784 506.599 107.309 500.12 117.891L501.826 118.936C508.522 107.999 511.854 95.2974 511.854 80.8651H509.854ZM500.117 117.897C493.846 128.277 485.199 136.386 474.156 142.233L475.091 144C486.445 137.99 495.365 129.63 501.829 118.931L500.117 117.897ZM474.162 142.229C463.344 147.855 450.989 150.68 437.075 150.68V152.68C451.267 152.68 463.945 149.797 475.085 144.004L474.162 142.229ZM437.075 150.68H385.693V152.68H437.075V150.68ZM384.693 151.68V236H386.693V151.68H384.693ZM385.693 235H342.215V237H385.693V235ZM385.693 113.156H432.793V111.156H385.693V113.156ZM432.793 113.156C443.306 113.156 451.905 110.243 458.493 104.336L457.158 102.847C451.01 108.359 442.92 111.156 432.793 111.156V113.156ZM458.493 104.336C465.106 98.4073 468.377 90.323 468.377 80.2063H466.377C466.377 89.852 463.28 97.358 457.158 102.847L458.493 104.336ZM468.377 80.2063V76.9126H466.377V80.2063H468.377ZM468.377 76.9126C468.377 66.7959 465.106 58.7115 458.493 52.7825L457.158 54.2716C463.28 59.7609 466.377 67.2669 466.377 76.9126H468.377ZM458.493 52.7825C451.905 46.8763 443.306 43.9633 432.793 43.9633V45.9633C442.92 45.9633 451.01 48.7595 457.158 54.2716L458.493 52.7825ZM432.793 43.9633H385.693V45.9633H432.793V43.9633ZM384.693 44.9633V112.156H386.693V44.9633H384.693ZM540.997 236H539.997V237H540.997V236ZM540.997 5.43851V4.43851H539.997V5.43851H540.997ZM689.215 5.43851H690.215V4.43851H689.215V5.43851ZM689.215 44.9633V45.9633H690.215V44.9633H689.215ZM584.475 44.9633V43.9633H583.475V44.9633H584.475ZM584.475 99.9687H583.475V100.969H584.475V99.9687ZM679.993 99.9687H680.993V98.9687H679.993V99.9687ZM679.993 139.494V140.494H680.993V139.494H679.993ZM584.475 139.494V138.494H583.475V139.494H584.475ZM584.475 196.475H583.475V197.475H584.475V196.475ZM691.192 196.475H692.192V195.475H691.192V196.475ZM691.192 236V237H692.192V236H691.192ZM541.997 236V5.43851H539.997V236H541.997ZM540.997 6.43851H689.215V4.43851H540.997V6.43851ZM688.215 5.43851V44.9633H690.215V5.43851H688.215ZM689.215 43.9633H584.475V45.9633H689.215V43.9633ZM583.475 44.9633V99.9687H585.475V44.9633H583.475ZM584.475 100.969H679.993V98.9687H584.475V100.969ZM678.993 99.9687V139.494H680.993V99.9687H678.993ZM679.993 138.494H584.475V140.494H679.993V138.494ZM583.475 139.494V196.475H585.475V139.494H583.475ZM584.475 197.475H691.192V195.475H584.475V197.475ZM690.192 196.475V236H692.192V196.475H690.192ZM691.192 235H540.997V237H691.192V235ZM723.375 236H722.375V237H723.375V236ZM723.375 5.43851V4.43851H722.375V5.43851H723.375ZM861.383 13.0141L860.958 13.9193L861.383 13.0141ZM886.415 34.4234L887.256 33.8826L886.415 34.4234ZM885.427 104.58L886.219 105.19L885.427 104.58ZM861.053 123.354L860.675 122.429L860.053 122.683V123.354H861.053ZM861.053 129.283H860.053V130.234L861.003 130.282L861.053 129.283ZM881.474 138.505L880.711 139.151L880.717 139.159L880.724 139.166L881.474 138.505ZM888.721 236V237H889.721V236H888.721ZM845.243 236H844.243V237H845.243V236ZM840.961 153.986L840.181 154.611L840.193 154.626L840.206 154.641L840.961 153.986ZM766.852 149.045V148.045H765.852V149.045H766.852ZM766.852 236V237H767.852V236H766.852ZM766.852 109.521H765.852V110.521H766.852V109.521ZM842.938 101.286L843.631 102.007L843.631 102.007L842.938 101.286ZM843.267 53.5271L842.56 54.2342L842.567 54.2411L842.574 54.2479L843.267 53.5271ZM766.852 44.9633V43.9633H765.852V44.9633H766.852ZM724.375 236V5.43851H722.375V236H724.375ZM723.375 6.43851H823.505V4.43851H723.375V6.43851ZM823.505 6.43851C837.882 6.43851 850.357 8.94351 860.958 13.9193L861.807 12.1089C850.889 6.9839 838.112 4.43851 823.505 4.43851V6.43851ZM860.958 13.9193C871.562 18.8968 879.755 25.9132 885.574 34.9641L887.256 33.8826C881.217 24.4887 872.722 17.2322 861.807 12.1089L860.958 13.9193ZM885.574 34.9641C891.385 44.0034 894.308 54.679 894.308 67.0314H896.308C896.308 54.3513 893.303 43.2883 887.256 33.8826L885.574 34.9641ZM894.308 67.0314V70.9838H896.308V67.0314H894.308ZM894.308 70.9838C894.308 84.6595 891.053 95.6251 884.634 103.97L886.219 105.19C892.975 96.4074 896.308 84.9756 896.308 70.9838H894.308ZM884.634 103.97C878.15 112.399 870.167 118.546 860.675 122.429L861.432 124.28C871.263 120.258 879.528 113.888 886.219 105.19L884.634 103.97ZM860.053 123.354V129.283H862.053V123.354H860.053ZM861.003 130.282C869.563 130.71 876.09 133.691 880.711 139.151L882.238 137.859C877.197 131.902 870.11 128.735 861.103 128.284L861.003 130.282ZM880.724 139.166C885.355 144.429 887.721 151.529 887.721 160.573H889.721C889.721 151.173 887.255 143.561 882.225 137.845L880.724 139.166ZM887.721 160.573V236H889.721V160.573H887.721ZM888.721 235H845.243V237H888.721V235ZM846.243 236V166.832H844.243V236H846.243ZM846.243 166.832C846.243 161.374 844.76 156.843 841.717 153.331L840.206 154.641C842.871 157.717 844.243 161.75 844.243 166.832H846.243ZM841.742 153.361C838.837 149.729 833.97 148.045 827.457 148.045V150.045C833.679 150.045 837.816 151.655 840.181 154.611L841.742 153.361ZM827.457 148.045H766.852V150.045H827.457V148.045ZM765.852 149.045V236H767.852V149.045H765.852ZM766.852 235H723.375V237H766.852V235ZM766.852 110.521H818.893V108.521H766.852V110.521ZM818.893 110.521C829.391 110.521 837.684 107.725 843.631 102.007L842.245 100.565C836.773 105.827 829.036 108.521 818.893 108.521V110.521ZM843.631 102.007C849.78 96.0853 852.831 88.347 852.831 78.8888H850.831C850.831 87.8755 847.952 95.0688 842.244 100.566L843.631 102.007ZM852.831 78.8888V75.5951H850.831V78.8888H852.831ZM852.831 75.5951C852.831 66.1492 849.898 58.5155 843.96 52.8062L842.574 54.2479C848.054 59.5177 850.831 66.596 850.831 75.5951H852.831ZM843.974 52.8199C838.025 46.871 829.614 43.9633 818.893 43.9633V45.9633C829.252 45.9633 837.09 48.7648 842.56 54.2342L843.974 52.8199ZM818.893 43.9633H766.852V45.9633H818.893V43.9633ZM765.852 44.9633V109.521H767.852V44.9633H765.852ZM980.984 236H979.984V237H980.984V236ZM980.984 44.9633H981.984V43.9633H980.984V44.9633ZM913.792 44.9633H912.792V45.9633H913.792V44.9633ZM913.792 5.43851V4.43851H912.792V5.43851H913.792ZM1091.65 5.43851H1092.65V4.43851H1091.65V5.43851ZM1091.65 44.9633V45.9633H1092.65V44.9633H1091.65ZM1024.46 44.9633V43.9633H1023.46V44.9633H1024.46ZM1024.46 236V237H1025.46V236H1024.46ZM981.984 236V44.9633H979.984V236H981.984ZM980.984 43.9633H913.792V45.9633H980.984V43.9633ZM914.792 44.9633V5.43851H912.792V44.9633H914.792ZM913.792 6.43851H1091.65V4.43851H913.792V6.43851ZM1090.65 5.43851V44.9633H1092.65V5.43851H1090.65ZM1091.65 43.9633H1024.46V45.9633H1091.65V43.9633ZM1023.46 44.9633V236H1025.46V44.9633H1023.46ZM1024.46 235H980.984V237H1024.46V235ZM1121.26 236H1120.26V237H1121.26V236ZM1121.26 5.43851V4.43851H1120.26V5.43851H1121.26ZM1164.74 5.43851H1165.74V4.43851H1164.74V5.43851ZM1164.74 236V237H1165.74V236H1164.74ZM1122.26 236V5.43851H1120.26V236H1122.26ZM1121.26 6.43851H1164.74V4.43851H1121.26V6.43851ZM1163.74 5.43851V236H1165.74V5.43851H1163.74ZM1164.74 235H1121.26V237H1164.74V235ZM1208.11 236H1207.11V237H1208.11V236ZM1208.11 5.43851V4.43851H1207.11V5.43851H1208.11ZM1356.33 5.43851H1357.33V4.43851H1356.33V5.43851ZM1356.33 44.9633V45.9633H1357.33V44.9633H1356.33ZM1251.58 44.9633V43.9633H1250.58V44.9633H1251.58ZM1251.58 99.9687H1250.58V100.969H1251.58V99.9687ZM1347.1 99.9687H1348.1V98.9687H1347.1V99.9687ZM1347.1 139.494V140.494H1348.1V139.494H1347.1ZM1251.58 139.494V138.494H1250.58V139.494H1251.58ZM1251.58 196.475H1250.58V197.475H1251.58V196.475ZM1358.3 196.475H1359.3V195.475H1358.3V196.475ZM1358.3 236V237H1359.3V236H1358.3ZM1209.11 236V5.43851H1207.11V236H1209.11ZM1208.11 6.43851H1356.33V4.43851H1208.11V6.43851ZM1355.33 5.43851V44.9633H1357.33V5.43851H1355.33ZM1356.33 43.9633H1251.58V45.9633H1356.33V43.9633ZM1250.58 44.9633V99.9687H1252.58V44.9633H1250.58ZM1251.58 100.969H1347.1V98.9687H1251.58V100.969ZM1346.1 99.9687V139.494H1348.1V99.9687H1346.1ZM1347.1 138.494H1251.58V140.494H1347.1V138.494ZM1250.58 139.494V196.475H1252.58V139.494H1250.58ZM1251.58 197.475H1358.3V195.475H1251.58V197.475ZM1357.3 196.475V236H1359.3V196.475H1357.3ZM1358.3 235H1208.11V237H1358.3V235ZM1423.42 231.059L1423 231.965L1423.42 231.059ZM1391.47 203.721L1392.31 203.177L1391.47 203.721ZM1379.95 151.68V150.68H1378.95V151.68H1379.95ZM1422.76 151.68H1423.76V150.68H1422.76V151.68ZM1435.61 192.193L1434.97 192.966L1434.98 192.971L1434.99 192.976L1435.61 192.193ZM1503.79 193.511L1503.17 192.728L1503.16 192.732L1503.16 192.737L1503.79 193.511ZM1509.39 155.303L1508.64 155.968L1508.65 155.979L1508.66 155.99L1509.39 155.303ZM1493.58 145.752L1493.22 146.684L1493.24 146.691L1493.25 146.697L1493.58 145.752ZM1468.55 138.505L1468.76 137.529L1468.76 137.528L1468.55 138.505ZM1460.97 136.859L1460.75 137.835L1460.76 137.836L1460.97 136.859ZM1420.13 123.684L1419.69 124.582L1419.7 124.587L1419.71 124.592L1420.13 123.684ZM1394.11 102.274L1393.28 102.834L1393.28 102.841L1393.29 102.848L1394.11 102.274ZM1395.1 32.1178L1394.27 31.5589L1394.26 31.5631L1395.1 32.1178ZM1423.42 9.06163L1423.82 9.9782L1423.83 9.97477L1423.42 9.06163ZM1510.38 9.391L1509.97 10.3035L1509.98 10.3077L1509.99 10.3118L1510.38 9.391ZM1540.68 34.4234L1539.84 34.9666L1539.85 34.9762L1539.85 34.9857L1540.68 34.4234ZM1551.88 85.8057V86.8057H1552.88V85.8057H1551.88ZM1509.06 85.8057H1508.06V86.8057H1509.06V85.8057ZM1503.79 54.8446L1502.93 55.3591L1502.94 55.3795L1502.96 55.3992L1503.79 54.8446ZM1489.3 42.9871L1488.91 43.9111L1488.93 43.9168L1488.94 43.9221L1489.3 42.9871ZM1437.26 46.6102L1437.87 47.3965L1437.88 47.3937L1437.26 46.6102ZM1432.32 81.1944L1431.5 81.7799L1431.52 81.7943L1431.53 81.8084L1432.32 81.1944ZM1445.82 91.0756L1446.23 90.1618L1445.82 91.0756ZM1468.55 97.9925L1468.76 97.0153L1468.76 97.0147L1468.55 97.9925ZM1476.12 99.6393L1475.91 100.617L1475.91 100.617L1476.12 99.6393ZM1518.94 113.144L1518.53 114.054L1518.53 114.057L1518.94 113.144ZM1547.6 134.882L1548.39 134.279V134.279L1547.6 134.882ZM1546.94 206.686L1546.11 206.127L1546.11 206.131L1546.94 206.686ZM1516.64 231.718L1517.05 232.627L1517.06 232.624L1516.64 231.718ZM1470.52 239.611C1452.86 239.611 1437.31 236.449 1423.85 230.154L1423 231.965C1436.77 238.405 1452.62 241.611 1470.52 241.611V239.611ZM1423.85 230.154C1410.39 223.86 1399.89 214.868 1392.31 203.177L1390.63 204.265C1398.43 216.29 1409.23 225.523 1423 231.965L1423.85 230.154ZM1392.31 203.177C1384.75 191.509 1380.95 177.434 1380.95 160.903H1378.95C1378.95 177.749 1382.83 192.218 1390.63 204.265L1392.31 203.177ZM1380.95 160.903V151.68H1378.95V160.903H1380.95ZM1379.95 152.68H1422.76V150.68H1379.95V152.68ZM1421.76 151.68V160.903H1423.76V151.68H1421.76ZM1421.76 160.903C1421.76 174.955 1426.12 185.704 1434.97 192.966L1436.24 191.42C1427.97 184.63 1423.76 174.518 1423.76 160.903H1421.76ZM1434.99 192.976C1443.78 199.966 1455.66 203.404 1470.52 203.404V201.404C1455.96 201.404 1444.57 198.035 1436.23 191.41L1434.99 192.976ZM1470.52 203.404C1485.56 203.404 1496.92 200.424 1504.42 194.285L1503.16 192.737C1496.17 198.455 1485.35 201.404 1470.52 201.404V203.404ZM1504.41 194.294C1512.11 188.183 1515.99 180.323 1515.99 170.784H1513.99C1513.99 179.69 1510.4 186.981 1503.17 192.728L1504.41 194.294ZM1515.99 170.784C1515.99 164.208 1514.05 158.786 1510.12 154.617L1508.66 155.99C1512.19 159.726 1513.99 164.625 1513.99 170.784H1515.99ZM1510.14 154.639C1506.47 150.516 1501.03 147.256 1493.9 144.806L1493.25 146.697C1500.18 149.078 1505.28 152.186 1508.64 155.968L1510.14 154.639ZM1493.94 144.819C1487.07 142.161 1478.68 139.732 1468.76 137.529L1468.33 139.482C1478.18 141.67 1486.47 144.073 1493.22 146.684L1493.94 144.819ZM1468.76 137.528L1461.18 135.881L1460.76 137.836L1468.33 139.483L1468.76 137.528ZM1461.19 135.882C1445.43 132.38 1431.89 128.009 1420.55 122.776L1419.71 124.592C1431.21 129.899 1444.89 134.31 1460.75 137.835L1461.19 135.882ZM1420.57 122.786C1409.5 117.358 1400.96 110.325 1394.93 101.701L1393.29 102.848C1399.55 111.791 1408.36 119.03 1419.69 124.582L1420.57 122.786ZM1394.94 101.715C1389.15 93.1429 1386.22 81.9373 1386.22 68.0195H1384.22C1384.22 82.2082 1387.21 93.8392 1393.28 102.834L1394.94 101.715ZM1386.22 68.0195C1386.22 54.1268 1389.47 42.3612 1395.93 32.6725L1394.26 31.5631C1387.55 41.6368 1384.22 53.8057 1384.22 68.0195H1386.22ZM1395.93 32.6766C1402.62 22.7464 1411.9 15.1786 1423.82 9.97817L1423.02 8.14509C1410.79 13.4846 1401.19 21.2876 1394.27 31.5589L1395.93 32.6766ZM1423.83 9.97477C1435.97 4.55375 1450.21 1.82728 1466.57 1.82728V-0.172722C1449.99 -0.172722 1435.46 2.59039 1423.01 8.14849L1423.83 9.97477ZM1466.57 1.82728C1482.92 1.82728 1497.38 4.66148 1509.97 10.3035L1510.79 8.47849C1497.9 2.70223 1483.16 -0.172722 1466.57 -0.172722V1.82728ZM1509.99 10.3118C1522.77 15.7278 1532.71 23.9454 1539.84 34.9666L1541.52 33.8801C1534.16 22.504 1523.9 14.0333 1510.77 8.47025L1509.99 10.3118ZM1539.85 34.9857C1547.18 45.7609 1550.88 59.3851 1550.88 75.9245H1552.88C1552.88 59.0873 1549.11 45.0441 1541.51 33.8611L1539.85 34.9857ZM1550.88 75.9245V85.8057H1552.88V75.9245H1550.88ZM1551.88 84.8057H1509.06V86.8057H1551.88V84.8057ZM1510.06 85.8057V75.9245H1508.06V85.8057H1510.06ZM1510.06 75.9245C1510.06 67.0175 1508.28 59.7763 1504.62 54.2899L1502.96 55.3992C1506.33 60.4528 1508.06 67.2648 1508.06 75.9245H1510.06ZM1504.65 54.3301C1501.23 48.635 1496.22 44.5417 1489.65 42.0521L1488.94 43.9221C1495.11 46.2633 1499.76 50.075 1502.93 55.3591L1504.65 54.3301ZM1489.68 42.0631C1483.16 39.3662 1475.45 38.0346 1466.57 38.0346V40.0346C1475.26 40.0346 1482.7 41.338 1488.91 43.9111L1489.68 42.0631ZM1466.57 38.0346C1453.3 38.0346 1443.26 40.5725 1436.63 45.8267L1437.88 47.3937C1443.99 42.5471 1453.49 40.0346 1466.57 40.0346V38.0346ZM1436.64 45.8239C1430.22 50.8641 1427.03 57.8649 1427.03 66.702H1429.03C1429.03 58.4117 1431.99 52.018 1437.87 47.3965L1436.64 45.8239ZM1427.03 66.702C1427.03 72.5843 1428.51 77.6292 1431.5 81.7799L1433.13 80.6089C1430.41 76.8546 1429.03 72.238 1429.03 66.702H1427.03ZM1431.53 81.8084C1434.73 85.9236 1439.38 89.3068 1445.41 91.9894L1446.23 90.1618C1440.4 87.5745 1436.05 84.3702 1433.1 80.5805L1431.53 81.8084ZM1445.41 91.9894C1451.43 94.662 1459.07 96.9855 1468.34 98.9703L1468.76 97.0147C1459.57 95.047 1452.07 92.7592 1446.23 90.1618L1445.41 91.9894ZM1468.33 98.9697L1475.91 100.617L1476.33 98.6622L1468.76 97.0153L1468.33 98.9697ZM1475.91 100.617C1492.33 104.119 1506.53 108.601 1518.53 114.054L1519.35 112.233C1507.2 106.707 1492.85 102.186 1476.33 98.6613L1475.91 100.617ZM1518.53 114.057C1530.71 119.491 1540.11 126.641 1546.8 135.485L1548.39 134.279C1541.47 125.118 1531.77 117.776 1519.35 112.231L1518.53 114.057ZM1546.8 135.485C1553.45 144.276 1556.81 155.577 1556.81 169.467H1558.81C1558.81 155.25 1555.36 143.495 1548.39 134.279L1546.8 135.485ZM1556.81 169.467C1556.81 183.338 1553.23 195.547 1546.11 206.127L1547.77 207.244C1555.13 196.306 1558.81 183.701 1558.81 169.467H1556.81ZM1546.11 206.131C1539.19 216.497 1529.25 224.729 1516.21 230.812L1517.06 232.624C1530.37 226.41 1540.63 217.954 1547.77 207.24L1546.11 206.131ZM1516.22 230.809C1503.42 236.665 1488.2 239.611 1470.52 239.611V241.611C1488.42 241.611 1503.94 238.629 1517.05 232.627L1516.22 230.809Z" fill="#363636"/>
</svg>
