<svg width="721" height="241" viewBox="0 0 721 241" fill="none" xmlns="http://www.w3.org/2000/svg">
<path d="M43.676 231.059L43.2523 231.965L43.676 231.059ZM11.7268 203.721L12.5659 203.177L11.7268 203.721ZM0.198701 151.68V150.68H-0.801299V151.68H0.198701ZM43.0173 151.68H44.0173V150.68H43.0173V151.68ZM55.8628 192.193L55.2285 192.966L55.2345 192.971L55.2406 192.976L55.8628 192.193ZM124.043 193.511L123.421 192.728L123.416 192.732L123.41 192.737L124.043 193.511ZM129.643 155.303L128.895 155.968L128.905 155.979L128.915 155.99L129.643 155.303ZM113.833 145.752L113.472 146.684L113.489 146.691L113.507 146.697L113.833 145.752ZM88.8002 138.505L89.0171 137.529L89.0126 137.528L88.8002 138.505ZM81.2246 136.859L81.0077 137.835L81.0122 137.836L81.2246 136.859ZM40.3823 123.684L39.9421 124.582L39.9526 124.587L39.9632 124.592L40.3823 123.684ZM14.3618 102.274L13.5329 102.834L13.5377 102.841L13.5425 102.848L14.3618 102.274ZM15.3499 32.1178L14.5206 31.5589L14.5178 31.5631L15.3499 32.1178ZM43.676 9.06163L44.076 9.9782L44.0837 9.97477L43.676 9.06163ZM130.631 9.391L130.222 10.3035L130.231 10.3077L130.24 10.3118L130.631 9.391ZM160.933 34.4234L160.093 34.9666L160.1 34.9762L160.106 34.9857L160.933 34.4234ZM172.132 85.8057V86.8057H173.132V85.8057H172.132ZM129.313 85.8057H128.313V86.8057H129.313V85.8057ZM124.043 54.8446L123.186 55.3591L123.198 55.3795L123.211 55.3992L124.043 54.8446ZM109.551 42.9871L109.168 43.9111L109.182 43.9168L109.196 43.9221L109.551 42.9871ZM57.5097 46.6102L58.1275 47.3965L58.1311 47.3937L57.5097 46.6102ZM52.5691 81.1944L51.7584 81.7799L51.7688 81.7943L51.7797 81.8084L52.5691 81.1944ZM66.0734 91.0756L66.4796 90.1618L66.0734 91.0756ZM88.8002 97.9925L89.0126 97.0153L89.0097 97.0147L88.8002 97.9925ZM96.3758 99.6393L96.1633 100.617L96.1671 100.617L96.3758 99.6393ZM139.194 113.144L138.781 114.054L138.787 114.057L139.194 113.144ZM167.85 134.882L168.648 134.279V134.279L167.85 134.882ZM167.191 206.686L166.362 206.127L166.359 206.131L167.191 206.686ZM136.889 231.718L137.305 232.627L137.312 232.624L136.889 231.718ZM90.7764 239.611C73.1101 239.611 57.559 236.449 44.0997 230.154L43.2523 231.965C57.0212 238.405 72.8704 241.611 90.7764 241.611V239.611ZM44.0997 230.154C30.644 223.86 20.1429 214.868 12.5659 203.177L10.8876 204.265C18.6814 216.29 29.4798 225.523 43.2523 231.965L44.0997 230.154ZM12.5659 203.177C5.00332 191.509 1.1987 177.434 1.1987 160.903H-0.801299C-0.801299 177.749 3.07947 192.218 10.8876 204.265L12.5659 203.177ZM1.1987 160.903V151.68H-0.801299V160.903H1.1987ZM0.198701 152.68H43.0173V150.68H0.198701V152.68ZM42.0173 151.68V160.903H44.0173V151.68H42.0173ZM42.0173 160.903C42.0173 174.955 46.377 185.704 55.2285 192.966L56.4971 191.42C48.2212 184.63 44.0173 174.518 44.0173 160.903H42.0173ZM55.2406 192.976C64.0337 199.966 75.9161 203.404 90.7764 203.404V201.404C76.2127 201.404 64.8194 198.035 56.4851 191.41L55.2406 192.976ZM90.7764 203.404C105.81 203.404 117.172 200.424 124.676 194.285L123.41 192.737C116.421 198.455 105.606 201.404 90.7764 201.404V203.404ZM124.665 194.294C132.36 188.183 136.242 180.323 136.242 170.784H134.242C134.242 179.69 130.658 186.981 123.421 192.728L124.665 194.294ZM136.242 170.784C136.242 164.208 134.307 158.786 130.37 154.617L128.915 155.99C132.443 159.726 134.242 164.625 134.242 170.784H136.242ZM130.39 154.639C126.725 150.516 121.285 147.256 114.158 144.806L113.507 146.697C120.434 149.078 125.533 152.186 128.895 155.968L130.39 154.639ZM114.194 144.819C107.326 142.161 98.9301 139.732 89.0171 137.529L88.5833 139.482C98.4327 141.67 106.725 144.073 113.472 146.684L114.194 144.819ZM89.0126 137.528L81.437 135.881L81.0122 137.836L88.5878 139.483L89.0126 137.528ZM81.4415 135.882C65.6824 132.38 52.1395 128.009 40.8013 122.776L39.9632 124.592C51.4616 129.899 65.1469 134.31 81.0077 137.835L81.4415 135.882ZM40.8224 122.786C29.7505 117.358 21.2176 110.325 15.181 101.701L13.5425 102.848C19.8025 111.791 28.6166 119.03 39.9421 124.582L40.8224 122.786ZM15.1906 101.715C9.40453 93.1429 6.46868 81.9373 6.46868 68.0195H4.46868C4.46868 82.2082 7.46155 93.8392 13.5329 102.834L15.1906 101.715ZM6.46868 68.0195C6.46868 54.1268 9.72279 42.3612 16.1819 32.6725L14.5178 31.5631C7.80203 41.6368 4.46868 53.8057 4.46868 68.0195H6.46868ZM16.1792 32.6766C22.8713 22.7464 32.1583 15.1786 44.076 9.97817L43.2761 8.14509C31.0397 13.4846 21.4426 21.2876 14.5206 31.5589L16.1792 32.6766ZM44.0837 9.97477C56.2267 4.55375 70.4652 1.82728 86.8239 1.82728V-0.172722C70.2454 -0.172722 55.7185 2.59039 43.2684 8.14849L44.0837 9.97477ZM86.8239 1.82728C103.177 1.82728 117.636 4.66148 130.222 10.3035L131.04 8.47849C118.154 2.70223 103.409 -0.172722 86.8239 -0.172722V1.82728ZM130.24 10.3118C143.022 15.7278 152.962 23.9454 160.093 34.9666L161.773 33.8801C154.412 22.504 144.15 14.0333 131.021 8.47025L130.24 10.3118ZM160.106 34.9857C167.433 45.7609 171.132 59.3851 171.132 75.9245H173.132C173.132 59.0873 169.364 45.0441 161.76 33.8611L160.106 34.9857ZM171.132 75.9245V85.8057H173.132V75.9245H171.132ZM172.132 84.8057H129.313V86.8057H172.132V84.8057ZM130.313 85.8057V75.9245H128.313V85.8057H130.313ZM130.313 75.9245C130.313 67.0175 128.533 59.7763 124.875 54.2899L123.211 55.3992C126.58 60.4528 128.313 67.2648 128.313 75.9245H130.313ZM124.901 54.3301C121.484 48.635 116.469 44.5417 109.905 42.0521L109.196 43.9221C115.368 46.2633 120.015 50.075 123.186 55.3591L124.901 54.3301ZM109.933 42.0631C103.416 39.3662 95.7039 38.0346 86.8239 38.0346V40.0346C95.5106 40.0346 102.95 41.338 109.168 43.9111L109.933 42.0631ZM86.8239 38.0346C73.5533 38.0346 63.5132 40.5725 56.8883 45.8267L58.1311 47.3937C64.242 42.5471 73.7447 40.0346 86.8239 40.0346V38.0346ZM56.8919 45.8239C50.4771 50.8641 47.2872 57.8649 47.2872 66.702H49.2872C49.2872 58.4117 52.2457 52.018 58.1275 47.3965L56.8919 45.8239ZM47.2872 66.702C47.2872 72.5843 48.7607 77.6292 51.7584 81.7799L53.3798 80.6089C50.6683 76.8546 49.2872 72.238 49.2872 66.702H47.2872ZM51.7797 81.8084C54.9805 85.9236 59.6312 89.3068 65.6673 91.9894L66.4796 90.1618C60.6581 87.5745 56.306 84.3702 53.3584 80.5805L51.7797 81.8084ZM65.6673 91.9894C71.6805 94.662 79.3281 96.9855 88.5907 98.9703L89.0097 97.0147C79.8273 95.047 72.3238 92.7592 66.4796 90.1618L65.6673 91.9894ZM88.5878 98.9697L96.1633 100.617L96.5882 98.6622L89.0126 97.0153L88.5878 98.9697ZM96.1671 100.617C112.583 104.119 126.784 108.601 138.781 114.054L139.608 112.233C127.451 106.707 113.106 102.186 96.5844 98.6613L96.1671 100.617ZM138.787 114.057C150.959 119.491 160.365 126.641 167.052 135.485L168.648 134.279C161.721 125.118 152.023 117.776 139.602 112.231L138.787 114.057ZM167.052 135.485C173.699 144.276 177.06 155.577 177.06 169.467H179.06C179.06 155.25 175.615 143.495 168.648 134.279L167.052 135.485ZM177.06 169.467C177.06 183.338 173.487 195.547 166.362 206.127L168.021 207.244C175.387 196.306 179.06 183.701 179.06 169.467H177.06ZM166.359 206.131C159.448 216.497 149.5 224.729 136.466 230.812L137.312 232.624C150.628 226.41 160.881 217.954 168.023 207.24L166.359 206.131ZM136.473 230.809C123.676 236.665 108.454 239.611 90.7764 239.611V241.611C108.672 241.611 124.191 238.629 137.305 232.627L136.473 230.809ZM210.486 236H209.486V237H210.486V236ZM210.486 5.43851V4.43851H209.486V5.43851H210.486ZM358.704 5.43851H359.704V4.43851H358.704V5.43851ZM358.704 44.9633V45.9633H359.704V44.9633H358.704ZM253.963 44.9633V43.9633H252.963V44.9633H253.963ZM253.963 99.9687H252.963V100.969H253.963V99.9687ZM349.481 99.9687H350.481V98.9687H349.481V99.9687ZM349.481 139.494V140.494H350.481V139.494H349.481ZM253.963 139.494V138.494H252.963V139.494H253.963ZM253.963 196.475H252.963V197.475H253.963V196.475ZM360.68 196.475H361.68V195.475H360.68V196.475ZM360.68 236V237H361.68V236H360.68ZM211.486 236V5.43851H209.486V236H211.486ZM210.486 6.43851H358.704V4.43851H210.486V6.43851ZM357.704 5.43851V44.9633H359.704V5.43851H357.704ZM358.704 43.9633H253.963V45.9633H358.704V43.9633ZM252.963 44.9633V99.9687H254.963V44.9633H252.963ZM253.963 100.969H349.481V98.9687H253.963V100.969ZM348.481 99.9687V139.494H350.481V99.9687H348.481ZM349.481 138.494H253.963V140.494H349.481V138.494ZM252.963 139.494V196.475H254.963V139.494H252.963ZM253.963 197.475H360.68V195.475H253.963V197.475ZM359.68 196.475V236H361.68V196.475H359.68ZM360.68 235H210.486V237H360.68V235ZM392.863 236H391.863V237H392.863V236ZM392.863 5.43851V4.43851H391.863V5.43851H392.863ZM436.341 5.43851H437.341V4.43851H436.341V5.43851ZM436.341 196.475H435.341V197.475H436.341V196.475ZM541.74 196.475H542.74V195.475H541.74V196.475ZM541.74 236V237H542.74V236H541.74ZM393.863 236V5.43851H391.863V236H393.863ZM392.863 6.43851H436.341V4.43851H392.863V6.43851ZM435.341 5.43851V196.475H437.341V5.43851H435.341ZM436.341 197.475H541.74V195.475H436.341V197.475ZM540.74 196.475V236H542.74V196.475H540.74ZM541.74 235H392.863V237H541.74V235ZM571.381 236H570.381V237H571.381V236ZM571.381 5.43851V4.43851H570.381V5.43851H571.381ZM614.859 5.43851H615.859V4.43851H614.859V5.43851ZM614.859 196.475H613.859V197.475H614.859V196.475ZM720.258 196.475H721.258V195.475H720.258V196.475ZM720.258 236V237H721.258V236H720.258ZM572.381 236V5.43851H570.381V236H572.381ZM571.381 6.43851H614.859V4.43851H571.381V6.43851ZM613.859 5.43851V196.475H615.859V5.43851H613.859ZM614.859 197.475H720.258V195.475H614.859V197.475ZM719.258 196.475V236H721.258V196.475H719.258ZM720.258 235H571.381V237H720.258V235Z" fill="#363636"/>
</svg>
